{"asset":{"version":"2.0","generator":"Unity 6000.0.34f1 glTFast 5.2.0"},"nodes":[{"name":"Cube","mesh":0,"scale":[0.1,0.1,0.1]},{"name":"InputModel"},{"name":"HandInputModel"},{"name":"handL","children":[0,1,2],"translation":[0.25,0.745,-0.541]},{"name":"Cube","mesh":0,"scale":[0.1,0.1,0.1]},{"name":"InputModel"},{"name":"HandInputModel"},{"name":"handR","children":[4,5,6],"translation":[-0.25,0.745000064,-0.541]},{"name":"Main Camera","children":[9]},{"name":"Main Camera_Orientation","rotation":[0,-1,0,-4.371139E-08],"camera":0},{"name":"XRCameraSet","children":[3,7,8],"translation":[0.38,1.41,-2.14],"rotation":[0.08278551,0,0,0.996567369]},{"name":"WebAR Input"},{"name":"InputManager","children":[11],"translation":[0.3981489,0.742247,0.9768042]},{"name":"mixamorig:LeftToe_End","translation":[3.5527136E-17,0.0749,-1.11022296E-17]},{"name":"mixamorig:LeftToeBase","children":[13],"translation":[-5.3290704E-17,0.2088,1.7763568E-17],"rotation":[0.415801466,-0.0425574146,0.02027965,0.9082328]},{"name":"mixamorig:LeftFoot","children":[14],"translation":[0,0.157,-5.3290704E-17],"rotation":[0.4548051,0.009802918,-0.05767313,0.8886676]},{"name":"mixamorig:LeftLeg","children":[15],"translation":[1.7763568E-17,0.1809,8.881784E-18],"rotation":[-0.131144509,-0.009629359,0.00235622539,0.9913137]},{"name":"mixamorig:LeftUpLeg","children":[16],"translation":[0.1004,-0.0310999975,-0.0123],"rotation":[-0.07083619,-0.00182649947,-0.9955954,0.0613905564]},{"name":"mixamorig:RightToe_End","translation":[-5.3290704E-17,0.0749,8.881784E-18]},{"name":"mixamorig:RightToeBase","children":[18],"translation":[3.5527136E-17,0.2082,0],"rotation":[0.432477146,0.0433445871,-0.0204783138,0.9003696]},{"name":"mixamorig:RightFoot","children":[19],"translation":[0,0.157,-1.7763568E-17],"rotation":[0.50852555,-0.01431015,0.0449262075,0.859755039]},{"name":"mixamorig:RightLeg","children":[20],"translation":[0,0.1809,-6.1062266E-18],"rotation":[-0.206348181,0.0632114559,-0.0112672606,0.976369739]},{"name":"mixamorig:RightUpLeg","children":[21],"translation":[-0.1004,-0.0310999975,-0.0126],"rotation":[0.08818278,-0.00357130752,-0.9947569,-0.051670488]},{"name":"mixamorig:LeftHandIndex4","translation":[4.440892E-18,0.0191,-7.105427E-17]},{"name":"mixamorig:LeftHandIndex3","children":[23],"translation":[2.6645352E-17,0.0284999982,7.105427E-17],"rotation":[0.190346479,2.48053045E-08,-0.0202460829,0.9815082]},{"name":"mixamorig:LeftHandIndex2","children":[24],"translation":[-2.6645352E-17,0.0298,0],"rotation":[0.301423877,1.13933019E-07,-0.032061018,0.952951133]},{"name":"mixamorig:LeftHandIndex1","children":[25],"translation":[-0.0384,0.1009,-0.0015],"rotation":[0.205351964,-0.010229677,0.0207050033,0.978415668]},{"name":"mixamorig:LeftHandMiddle4","translation":[-8.881784E-18,0.0218,-7.105427E-17]},{"name":"mixamorig:LeftHandMiddle3","children":[27],"translation":[8.881784E-18,0.0316,1.7763568E-17],"rotation":[0.25880605,1.71233035E-06,-0.0285561811,0.96550715]},{"name":"mixamorig:LeftHandMiddle2","children":[28],"translation":[-0.0001,0.0321,3.5527136E-17],"rotation":[0.29665938,0.00032516857,-0.0312022828,0.954473436]},{"name":"mixamorig:LeftHandMiddle1","children":[29],"translation":[-0.0003,0.0973999947,0.0024],"rotation":[0.223079428,-0.003907391,-0.0380220674,0.974050641]},{"name":"mixamorig:LeftHandRing4","translation":[-0.0001,0.0166,-1.42108544E-16]},{"name":"mixamorig:LeftHandRing3","children":[31],"translation":[1.7763568E-17,0.0251,1.42108544E-16],"rotation":[0.341110855,0.00130886666,-0.0413709022,0.939111352]},{"name":"mixamorig:LeftHandRing2","children":[32],"translation":[0.0001,0.0278,0],"rotation":[0.327573121,-0.0007131104,-0.0387645438,0.944030046]},{"name":"mixamorig:LeftHandRing1","children":[33],"translation":[0.0387,0.098,-0.002],"rotation":[0.28742978,0.0007243343,-0.06996201,0.9552429]},{"name":"mixamorig:LeftHandThumb4","translation":[0.0004,0.024,7.105427E-17]},{"name":"mixamorig:LeftHandThumb3","children":[35],"translation":[-0.0003,0.0348,-3.5527136E-17],"rotation":[-0.2310074,-0.02475118,0.119266927,0.965297043]},{"name":"mixamorig:LeftHandThumb2","children":[36],"translation":[-0.0001,0.0413999967,3.5527136E-17],"rotation":[0.172371536,0.005446772,-0.14130497,0.974828839]},{"name":"mixamorig:LeftHandThumb1","children":[37],"translation":[-0.0377,0.0354,0.0011],"rotation":[0.0265553258,0.11123769,0.2735751,0.9550276]},{"name":"mixamorig:LeftHand","children":[26,30,34,38],"translation":[-3.330669E-17,0.1266,7.105427E-17],"rotation":[0.003124311,0.03165404,0.016769452,0.999353349]},{"name":"mixamorig:LeftForeArm","children":[39],"translation":[-1.7763568E-17,0.0938,0],"rotation":[0.115553856,-0.0118642943,0.09090468,0.989061654]},{"name":"mixamorig:LeftArm","children":[40],"translation":[-1.7763568E-17,0.16,-1.42108544E-16],"rotation":[0.473829478,0.157712445,0.0374764055,0.865568]},{"name":"mixamorig:LeftShoulder","children":[41],"translation":[0.0645,0.0713,-0.0006],"rotation":[0.5154272,0.505747557,-0.5615731,0.403967738]},{"name":"mixamorig:HeadTop_End","translation":[-1.06581408E-16,0.7418,0.0793999955]},{"name":"mixamorig:Head","children":[43],"translation":[1.7763568E-17,0.0461,0.0049],"rotation":[0.117555924,0.0254008137,-0.0440341756,0.9917643]},{"name":"mixamorig:Neck","children":[44],"translation":[4.440892E-18,0.0836999938,3.5527136E-17],"rotation":[0.009716914,-0.000694699353,-0.0046642,0.9999417]},{"name":"mixamorig:RightHandIndex4","translation":[-3.5527136E-17,0.0197,0]},{"name":"mixamorig:RightHandIndex3","children":[46],"translation":[3.5527136E-17,0.0298,-1.3322676E-17],"rotation":[0.2741689,-3.64252969E-07,0.030760752,0.961189449]},{"name":"mixamorig:RightHandIndex2","children":[47],"translation":[-1.06581408E-16,0.0323,3.5527136E-17],"rotation":[0.372216821,2.929868E-09,0.0417614244,0.927205861]},{"name":"mixamorig:RightHandIndex1","children":[48],"translation":[0.0369,0.094,0.00129999989],"rotation":[0.1532386,0.008235425,-0.04993313,0.9868925]},{"name":"mixamorig:RightHandMiddle4","translation":[0,0.0210999977,-1.42108544E-16]},{"name":"mixamorig:RightHandMiddle3","children":[50],"translation":[0,0.0325,-5.3290704E-17],"rotation":[0.2785021,-1.92242879E-07,0.0301034041,0.959963739]},{"name":"mixamorig:RightHandMiddle2","children":[51],"translation":[-0.0001,0.0326,0],"rotation":[0.33611533,0.000380489044,0.0378229655,0.94106096]},{"name":"mixamorig:RightHandMiddle1","children":[52],"translation":[0.0017,0.0963,0.0015],"rotation":[0.257842124,0.0144038536,-0.008518558,0.966042161]},{"name":"mixamorig:RightHandRing4","translation":[-0.0001,0.0169,0]},{"name":"mixamorig:RightHandRing3","children":[54],"translation":[-5.3290704E-17,0.0254,-7.105427E-17],"rotation":[0.243977726,0.00104577362,0.02380797,0.969488]},{"name":"mixamorig:RightHandRing2","children":[55],"translation":[-1.7763568E-17,0.0276,5.3290704E-17],"rotation":[0.346111923,-2.51920454E-07,0.0377261229,0.937434435]},{"name":"mixamorig:RightHandRing1","children":[56],"translation":[-0.0386,0.09819999,-0.0006],"rotation":[0.316370249,0.00479291473,0.039211195,0.947813]},{"name":"mixamorig:RightHandThumb4","translation":[-0.00569999963,0.0203,1.42108544E-16]},{"name":"mixamorig:RightHandThumb3","children":[58],"translation":[0.0042,0.0342,-3.5527136E-17],"rotation":[-0.19148384,0.0315071456,-0.292654425,0.936319768]},{"name":"mixamorig:RightHandThumb2","children":[59],"translation":[0.0015,0.0421,1.42108544E-16],"rotation":[0.0991565958,-0.0429316536,0.244256437,0.963672]},{"name":"mixamorig:RightHandThumb1","children":[60],"translation":[0.0376,0.0369,0],"rotation":[0.09053746,-0.103339449,-0.227053583,0.964142442]},{"name":"mixamorig:RightHand","children":[49,53,57,61],"translation":[-3.5527136E-17,0.1267,-3.5527136E-17],"rotation":[-0.004787261,-0.121879116,-0.111956492,0.986198962]},{"name":"mixamorig:RightForeArm","children":[62],"translation":[-8.881784E-18,0.0938,3.5527136E-17],"rotation":[0.108750626,0.0127834352,-0.113213047,0.9875184]},{"name":"mixamorig:RightArm","children":[63],"translation":[-1.7763568E-17,0.16,0],"rotation":[0.467113018,0.00484106457,0.08587948,0.8800038]},{"name":"mixamorig:RightShoulder","children":[64],"translation":[-0.0645,0.0713,-0.0011],"rotation":[-0.473434865,0.5318852,-0.5798028,-0.3959625]},{"name":"mixamorig:Spine2","children":[42,45,65],"translation":[-4.440892E-18,0.0744,0],"rotation":[-0.03485732,-0.0007578368,0.000374582363,0.999392]},{"name":"mixamorig:Spine1","children":[66],"translation":[8.881784E-18,0.0651,0],"rotation":[-0.03485084,-0.00086990447,0.0003696021,0.9993921]},{"name":"mixamorig:Spine","children":[67],"translation":[-2.220446E-18,0.0557,-0.00389999966],"rotation":[-0.035510052,-0.00360639021,0.00201102439,0.9993608]},{"name":"mixamorig:Hips","children":[17,22,68],"translation":[-0.028564984,0.527622163,0.0151357278],"rotation":[-0.00249674683,0.0417189971,0.0129940575,0.9990418]},{"name":"RayMascot_low","mesh":1},{"name":"RayMascot_low 1","children":[69,70],"translation":[0.11,-1.102,1.42],"rotation":[0,-1,0,0]},{"name":"PlacePrefab","children":[71],"translation":[0.5357164,1.07435358,-5.14]},{"name":"Reticle(Mesh)","mesh":2,"translation":[0,-0.3196451,0.556462169],"scale":[1,0,1]},{"name":"WebXRTest","translation":[0.590000153,-0.3196451,-1.786538],"scale":[1,0,1]},{"name":"Reticle","children":[73,74],"translation":[0.29,0.03,2.18],"scale":[3.38,3.38,3.38]}],"extensionsRequired":["KHR_materials_unlit"],"extensionsUsed":["KHR_materials_unlit"],"buffers":[{"uri":"scene.bin","byteLength":760496}],"bufferViews":[{"buffer":0,"byteLength":72},{"buffer":0,"byteLength":134424,"byteOffset":72},{"buffer":0,"byteLength":480,"byteOffset":134496},{"buffer":0,"byteLength":1344,"byteOffset":134976,"byteStride":56},{"buffer":0,"byteLength":516040,"byteOffset":136320,"byteStride":40},{"buffer":0,"byteLength":103208,"byteOffset":652360,"byteStride":8},{"buffer":0,"byteLength":4928,"byteOffset":755568,"byteStride":56}],"accessors":[{"bufferView":3,"componentType":5126,"count":24,"type":"VEC3","max":[0.5,0.5,0.5],"min":[-0.5,-0.5,-0.5]},{"bufferView":3,"componentType":5126,"count":24,"type":"VEC3","byteOffset":12},{"bufferView":3,"componentType":5126,"count":24,"type":"VEC4","byteOffset":24},{"bufferView":3,"componentType":5126,"count":24,"type":"VEC2","byteOffset":40},{"bufferView":3,"componentType":5126,"count":24,"type":"VEC2","byteOffset":48},{"bufferView":0,"componentType":5123,"count":36,"type":"SCALAR"},{"bufferView":4,"componentType":5126,"count":12901,"type":"VEC3","max":[0.736262739,1.99256253,0.498437226],"min":[-0.7362086,-0.00139784813,-0.4593367]},{"bufferView":4,"componentType":5126,"count":12901,"type":"VEC3","byteOffset":12},{"bufferView":4,"componentType":5126,"count":12901,"type":"VEC4","byteOffset":24},{"bufferView":5,"componentType":5126,"count":12901,"type":"VEC2"},{"bufferView":1,"componentType":5123,"count":67212,"type":"SCALAR"},{"bufferView":6,"componentType":5126,"count":88,"type":"VEC3","max":[0.5,1,0.5],"min":[-0.5000001,-1,-0.500000238]},{"bufferView":6,"componentType":5126,"count":88,"type":"VEC3","byteOffset":12},{"bufferView":6,"componentType":5126,"count":88,"type":"VEC4","byteOffset":24},{"bufferView":6,"componentType":5126,"count":88,"type":"VEC2","byteOffset":40},{"bufferView":6,"componentType":5126,"count":88,"type":"VEC2","byteOffset":48},{"bufferView":2,"componentType":5123,"count":240,"type":"SCALAR"}],"cameras":[{"type":"perspective","perspective":{"yfov":1.04719758,"zfar":1000,"znear":0.1}}],"images":[{"name":"RayMascot_low_RayMascot_Mat_Normal 1.png","uri":"RayMascot_low_RayMascot_Mat_Normal 1.png","mimeType":"image/png"},{"name":"RayMascot_low_RayMascot_Mat_BaseMap.jpg","uri":"RayMascot_low_RayMascot_Mat_BaseMap.jpg","mimeType":"image/jpeg"},{"name":"RayMascot_low_RayMascot_Mat_MaskMap.jpg","uri":"RayMascot_low_RayMascot_Mat_MaskMap.jpg","mimeType":"image/jpeg"}],"materials":[{"name":"White","pbrMetallicRoughness":{"metallicFactor":0}},{"name":"HDRP","pbrMetallicRoughness":{"roughnessFactor":0.74,"baseColorTexture":{"index":1},"metallicRoughnessTexture":{"index":2}},"normalTexture":{"index":0},"doubleSided":true},{"name":"UnlitTransparent","pbrMetallicRoughness":{"metallicFactor":0},"alphaMode":"BLEND","extensions":{"KHR_materials_unlit":{}}}],"meshes":[{"name":"Cube","primitives":[{"attributes":{"POSITION":0,"NORMAL":1,"TANGENT":2,"TEXCOORD_0":3,"TEXCOORD_1":4},"indices":5,"material":0}]},{"name":"RayMascot_low","primitives":[{"attributes":{"POSITION":6,"NORMAL":7,"TANGENT":8,"TEXCOORD_0":9},"indices":10,"material":1}]},{"name":"Cylinder","primitives":[{"attributes":{"POSITION":11,"NORMAL":12,"TANGENT":13,"TEXCOORD_0":14,"TEXCOORD_1":15},"indices":16,"material":2}]}],"samplers":[{"wrapS":33071,"wrapT":33071}],"scene":0,"scenes":[{"name":"WebAR_Trial","nodes":[10,12,72,75]}],"textures":[{"source":0},{"source":1,"sampler":0},{"source":2,"sampler":0}]}